<svg width="1981" height="734" viewBox="0 0 1981 734" fill="none" xmlns="http://www.w3.org/2000/svg">
<rect width="1981" height="733.904" rx="64" fill="#1E1E1E"/>
<path d="M376.092 286.522C441.395 286.522 494.333 233.575 494.333 168.261C494.333 102.947 441.395 50 376.092 50C310.789 50 257.851 102.947 257.851 168.261C257.851 233.575 310.789 286.522 376.092 286.522Z" fill="#EFBF28"/>
<path d="M621.855 286.522C687.157 286.522 740.096 233.575 740.096 168.261C740.096 102.947 687.157 50 621.855 50C556.552 50 503.613 102.947 503.613 168.261C503.613 233.575 556.552 286.522 621.855 286.522Z" fill="#00AACC"/>
<path d="M621.855 534.045C687.157 534.045 740.096 481.098 740.096 415.784C740.096 350.47 687.157 297.523 621.855 297.523C556.552 297.523 503.613 350.47 503.613 415.784C503.613 481.098 556.552 534.045 621.855 534.045Z" fill="#EB2329"/>
<path d="M867.618 286.522C932.921 286.522 985.86 233.575 985.86 168.261C985.86 102.947 932.921 50 867.618 50C802.315 50 749.377 102.947 749.377 168.261C749.377 233.575 802.315 286.522 867.618 286.522Z" fill="#008E49"/>
<path d="M1113.38 286.522C1178.68 286.522 1231.62 233.575 1231.62 168.261C1231.62 102.947 1178.68 50 1113.38 50C1048.08 50 995.141 102.947 995.141 168.261C995.141 233.575 1048.08 286.522 1113.38 286.522Z" fill="#0065A6"/>
<path d="M1359.14 534.045C1424.45 534.045 1477.39 481.098 1477.39 415.784C1477.39 350.47 1424.45 297.523 1359.14 297.523C1293.84 297.523 1240.9 350.47 1240.9 415.784C1240.9 481.098 1293.84 534.045 1359.14 534.045Z" fill="#7B7D7E"/>
<path d="M1604.91 534.045C1670.21 534.045 1723.15 481.098 1723.15 415.784C1723.15 350.47 1670.21 297.523 1604.91 297.523C1539.6 297.523 1486.67 350.47 1486.67 415.784C1486.67 481.098 1539.6 534.045 1604.91 534.045Z" fill="#955D29"/>
<path d="M376.092 534.045C441.395 534.045 494.333 481.098 494.333 415.784C494.333 350.47 441.395 297.523 376.092 297.523C310.789 297.523 257.851 350.47 257.851 415.784C257.851 481.098 310.789 534.045 376.092 534.045Z" fill="#6ABA4B"/>
<path d="M867.618 534.045C932.921 534.045 985.86 481.098 985.86 415.784C985.86 350.47 932.921 297.523 867.618 297.523C802.315 297.523 749.377 350.47 749.377 415.784C749.377 481.098 802.315 534.045 867.618 534.045Z" fill="#A73C93"/>
<path d="M1113.38 534.904C1179.16 534.904 1232.48 481.572 1232.48 415.783C1232.48 349.995 1179.16 296.663 1113.38 296.663C1047.6 296.663 994.281 349.995 994.281 415.783C994.281 481.572 1047.6 534.904 1113.38 534.904Z" fill="#EA891D"/>
<path d="M428.579 202.691C424.54 210.821 418.302 217.49 409.88 222.664C401.459 227.855 391.921 230.434 381.3 230.434C363.546 230.434 349.333 225.5 338.644 215.634C327.954 205.767 322.626 191.81 322.626 173.727C322.626 155.644 327.902 140.139 338.455 128.949C349.007 117.759 362.704 112.173 379.547 112.173C391.663 112.173 401.7 114.872 409.64 120.269C417.58 125.666 423.681 133.092 427.943 142.563L405.137 151.089C402.525 145.296 399.191 141.102 395.135 138.524C391.062 135.945 386.043 134.656 380.028 134.656C371.211 134.656 363.942 138.146 358.27 145.142C352.582 152.137 349.746 161.041 349.746 171.888C349.746 183.318 352.668 192.119 358.511 198.273C364.354 204.427 372.277 207.521 382.262 207.521C387.779 207.521 392.626 206.249 396.767 203.688C400.909 201.126 404.123 197.362 406.409 192.36L428.579 202.639V202.691Z" fill="black"/>
<path d="M621.34 230.434C604.858 230.434 591.333 225.105 580.763 214.448C570.194 203.791 564.9 189.902 564.9 172.781C564.9 154.716 570.262 140.088 581.004 128.932C591.745 117.776 605.804 112.19 623.179 112.19C639.609 112.19 652.98 117.536 663.326 128.21C673.655 138.902 678.828 152.98 678.828 170.461C678.828 187.942 673.466 202.914 662.759 213.915C652.052 224.916 638.251 230.416 621.34 230.416V230.434ZM621.821 207.864C630.81 207.864 638.028 204.684 643.51 198.342C648.993 191.999 651.725 183.181 651.725 171.905C651.725 160.629 649.061 151.02 643.751 144.471C638.44 137.939 631.342 134.656 622.457 134.656C613.572 134.656 605.958 138.025 600.373 144.746C594.787 151.467 592.003 160.354 592.003 171.424C592.003 182.493 594.787 191.518 600.373 198.049C605.958 204.581 613.091 207.864 621.821 207.864Z" fill="white"/>
<path d="M621.34 477.957C604.858 477.957 591.333 472.628 580.763 461.971C570.194 451.314 564.9 437.425 564.9 420.304C564.9 402.239 570.262 387.611 581.004 376.455C591.745 365.299 605.804 359.713 623.179 359.713C639.609 359.713 652.98 365.059 663.326 375.733C673.655 386.425 678.828 400.503 678.828 417.984C678.828 435.465 673.466 450.437 662.759 461.438C652.052 472.439 638.251 477.939 621.34 477.939V477.957ZM621.821 455.387C630.81 455.387 638.028 452.207 643.51 445.865C648.993 439.522 651.725 430.704 651.725 419.428C651.725 408.152 649.061 398.543 643.751 391.994C638.44 385.462 631.342 382.179 622.457 382.179C613.572 382.179 605.958 385.548 600.373 392.269C594.787 398.99 592.003 407.877 592.003 418.946C592.003 430.016 594.787 439.041 600.373 445.572C605.958 452.104 613.091 455.387 621.821 455.387Z" fill="white"/>
<path d="M820.494 228.44V114.098H860.985C881.282 114.098 896.509 118.739 906.666 128.004C916.823 137.286 921.893 151.227 921.893 169.825C921.893 188.424 916.359 201.848 905.274 212.488C894.189 223.128 879.426 228.44 860.985 228.44H820.494ZM846.239 135.464V207.057H858.991C870.145 207.057 878.91 203.756 885.269 197.121C891.611 190.504 894.79 181.514 894.79 170.135C894.79 159.34 891.645 150.866 885.338 144.695C879.048 138.524 870.214 135.447 858.837 135.447H846.239V135.464Z" fill="white"/>
<path d="M1151.57 228.44H1083.01V114.098H1148.94V135.464H1108.76V160.337H1146.14V181.548H1108.76V207.057H1151.57V228.423V228.44Z" fill="white"/>
<path d="M1397.33 475.962H1328.78V361.621H1394.7V382.987H1354.52V407.859H1391.9V429.071H1354.52V454.579H1397.33V475.945V475.962Z" fill="white"/>
<path d="M1643.1 475.962H1574.54V361.621H1640.47V382.987H1600.28V407.859H1637.67V429.071H1600.28V454.579H1643.1V475.945V475.962Z" fill="white"/>
<path d="M428.579 450.213C424.54 458.344 418.302 465.013 409.88 470.187C401.459 475.378 391.921 477.957 381.3 477.957C363.546 477.957 349.333 473.023 338.644 463.174C327.954 453.307 322.626 439.35 322.626 421.267C322.626 403.184 327.902 387.68 338.455 376.489C349.007 365.299 362.704 359.713 379.547 359.713C391.663 359.713 401.7 362.412 409.64 367.809C417.58 373.206 423.681 380.632 427.943 390.086L405.137 398.612C402.525 392.819 399.191 388.625 395.135 386.047C391.062 383.468 386.043 382.179 380.028 382.179C371.211 382.179 363.942 385.668 358.27 392.664C352.599 399.66 349.746 408.564 349.746 419.411C349.746 430.841 352.668 439.642 358.511 445.796C364.354 451.967 372.277 455.044 382.262 455.044C387.779 455.044 392.626 453.772 396.767 451.21C400.909 448.649 404.123 444.885 406.409 439.883L428.579 450.162V450.213Z" fill="white"/>
<path d="M904.328 382.987H863.992V410.489H901.063V431.7H863.992V475.962H838.247V361.621H904.345V382.987H904.328Z" fill="white"/>
<path d="M1150.09 382.987H1109.76V410.489H1146.83V431.7H1109.76V475.962H1084.01V361.621H1150.11V382.987H1150.09Z" fill="white"/>
<path d="M1392.26 211.251L1379.51 199.614C1373.29 204.341 1367.12 207.779 1360.97 209.893C1354.81 212.007 1347.82 213.09 1339.96 213.09C1327.47 213.09 1317.16 210.116 1309.03 204.152C1300.9 198.204 1296.83 189.507 1296.83 178.076C1296.83 170.049 1299.08 163.551 1303.56 158.583C1308.05 153.616 1314.15 149.198 1321.85 145.313C1317.86 140.947 1314.98 136.977 1313.21 133.35C1311.42 129.74 1310.54 125.855 1310.54 121.713C1310.54 113.789 1313.74 107.36 1320.11 102.409C1326.49 97.459 1334.86 95.001 1345.22 95.001C1355 95.001 1362.96 97.3043 1369.1 101.945C1375.23 106.569 1378.31 112.551 1378.31 119.891C1378.31 125.58 1376.78 130.565 1373.72 134.88C1370.66 139.177 1364.51 143.595 1355.26 148.115L1380.7 171.389C1384.79 166.765 1387.57 161.987 1389.07 157.036C1390.56 152.086 1391.3 146.774 1391.3 141.085H1413.3C1413.3 149.8 1411.82 157.655 1408.88 164.651C1405.93 171.647 1401.53 178.385 1395.68 184.865L1424.78 211.251H1392.25H1392.26ZM1364.76 185.897L1335.43 158.222C1331.87 160.13 1328.79 162.554 1326.22 165.476C1323.64 168.398 1322.35 172.249 1322.35 177.044C1322.35 182.15 1324.1 186.172 1327.61 189.128C1331.11 192.068 1335.67 193.546 1341.24 193.546C1345.17 193.546 1349.06 193.03 1352.91 191.999C1356.76 190.968 1360.71 188.922 1364.75 185.897H1364.76ZM1342.2 136.22C1346.77 134.364 1350.21 132.387 1352.53 130.273C1354.85 128.176 1356 125.288 1356 121.627C1356 118.602 1354.92 116.315 1352.73 114.768C1350.55 113.221 1348.06 112.448 1345.24 112.448C1341.68 112.448 1338.78 113.359 1336.54 115.198C1334.31 117.037 1333.19 119.306 1333.19 122.022C1333.19 124.36 1333.92 126.577 1335.34 128.674C1336.79 130.771 1339.05 133.281 1342.2 136.203V136.22Z" fill="white"/>
<path d="M106.672 650.216L62.768 622.216V609.224L106.672 581.224V598.472L78.448 615.496V615.944L106.672 632.968V650.216ZM150.756 654.248C144.858 654.248 139.668 652.829 135.188 649.992C130.708 647.154 127.199 642.936 124.66 637.336C122.196 631.661 120.964 624.605 120.964 616.168C120.964 607.954 122.196 601.085 124.66 595.56C127.199 589.96 130.708 585.778 135.188 583.016C139.668 580.178 144.858 578.76 150.756 578.76C156.655 578.76 161.844 580.178 166.324 583.016C170.804 585.778 174.276 589.96 176.74 595.56C179.279 601.085 180.548 607.954 180.548 616.168C180.548 624.605 179.279 631.661 176.74 637.336C174.276 642.936 170.804 647.154 166.324 649.992C161.844 652.829 156.655 654.248 150.756 654.248ZM150.756 637.672C152.847 637.672 154.639 636.888 156.132 635.32C157.626 633.752 158.783 631.4 159.604 628.264C160.426 625.053 160.836 621.021 160.836 616.168C160.836 611.538 160.426 607.693 159.604 604.632C158.783 601.496 157.626 599.181 156.132 597.688C154.639 596.12 152.847 595.336 150.756 595.336C148.666 595.336 146.874 596.12 145.38 597.688C143.887 599.181 142.73 601.496 141.908 604.632C141.087 607.693 140.676 611.538 140.676 616.168C140.676 621.021 141.087 625.053 141.908 628.264C142.73 631.4 143.887 633.752 145.38 635.32C146.874 636.888 148.666 637.672 150.756 637.672ZM191.481 672.616V596.904H207.161L208.505 602.056H208.953C211.118 600.114 213.545 598.546 216.233 597.352C218.995 596.157 221.795 595.56 224.633 595.56C229.187 595.56 233.107 596.754 236.393 599.144C239.678 601.458 242.217 604.744 244.009 609C245.875 613.256 246.809 618.258 246.809 624.008C246.809 630.429 245.651 635.917 243.337 640.472C241.097 644.952 238.147 648.386 234.489 650.776C230.905 653.09 227.059 654.248 222.953 654.248C220.563 654.248 218.286 653.762 216.121 652.792C214.03 651.821 212.089 650.44 210.297 648.648H209.849L210.745 657.16V672.616H191.481ZM218.361 638.568C219.929 638.568 221.347 638.12 222.617 637.224C223.961 636.328 225.043 634.834 225.865 632.744C226.686 630.653 227.097 627.816 227.097 624.232C227.097 621.17 226.761 618.706 226.089 616.84C225.491 614.898 224.595 613.48 223.401 612.584C222.206 611.688 220.675 611.24 218.809 611.24C217.315 611.24 215.934 611.538 214.665 612.136C213.395 612.733 212.089 613.778 210.745 615.272V635.88C211.939 636.85 213.171 637.56 214.441 638.008C215.785 638.381 217.091 638.568 218.361 638.568ZM288.429 654.248C282.53 654.248 277.191 653.09 272.413 650.776C267.709 648.461 263.975 645.138 261.213 640.808C258.45 636.402 257.069 631.101 257.069 624.904C257.069 618.781 258.45 613.554 261.213 609.224C264.05 604.818 267.709 601.458 272.189 599.144C276.669 596.754 281.41 595.56 286.413 595.56C292.311 595.56 297.239 596.792 301.197 599.256C305.154 601.645 308.103 604.893 310.045 609C312.061 613.106 313.069 617.661 313.069 622.664C313.069 624.306 312.957 625.912 312.733 627.48C312.583 628.973 312.434 630.056 312.285 630.728H271.629V618.184H298.957L296.269 621.544C296.269 617.81 295.522 614.973 294.029 613.032C292.535 611.09 290.221 610.12 287.085 610.12C284.621 610.12 282.53 610.642 280.813 611.688C279.17 612.733 277.901 614.376 277.005 616.616C276.109 618.781 275.661 621.544 275.661 624.904C275.661 628.413 276.221 631.25 277.341 633.416C278.535 635.581 280.253 637.186 282.493 638.232C284.807 639.202 287.682 639.688 291.117 639.688C293.357 639.688 295.522 639.426 297.613 638.904C299.778 638.306 302.093 637.448 304.557 636.328L310.829 647.752C307.469 649.842 303.773 651.448 299.741 652.568C295.709 653.688 291.938 654.248 288.429 654.248ZM325.793 652.904V596.904H341.473L342.817 603.624H343.265C345.505 601.458 348.156 599.592 351.217 598.024C354.278 596.381 357.862 595.56 361.969 595.56C368.166 595.56 372.684 597.65 375.521 601.832C378.358 605.938 379.777 611.464 379.777 618.408V652.904H360.513V620.872C360.513 617.736 360.028 615.458 359.057 614.04C358.161 612.621 356.481 611.912 354.017 611.912C352.225 611.912 350.657 612.285 349.313 613.032C347.969 613.778 346.55 614.824 345.057 616.168V652.904H325.793ZM486.09 654.248C481.311 654.248 476.42 653.389 471.418 651.672C466.49 649.954 461.972 647.341 457.866 643.832L468.842 630.616C471.604 632.706 474.554 634.424 477.69 635.768C480.9 637.037 484.148 637.672 487.434 637.672C490.346 637.672 492.399 637.261 493.594 636.44C494.863 635.618 495.498 634.61 495.498 633.416C495.498 631.997 495.087 630.877 494.266 630.056C493.444 629.234 492.25 628.488 490.682 627.816C489.114 627.144 487.21 626.36 484.97 625.464L475.898 621.656C473.135 620.61 470.559 619.192 468.17 617.4C465.855 615.533 463.988 613.293 462.57 610.68C461.226 607.992 460.554 604.893 460.554 601.384C460.554 597.202 461.711 593.432 464.026 590.072C466.34 586.637 469.588 583.912 473.77 581.896C477.951 579.805 482.804 578.76 488.33 578.76C492.66 578.76 496.991 579.581 501.322 581.224C505.727 582.792 509.684 585.218 513.194 588.504L503.562 600.6C500.948 598.882 498.447 597.576 496.058 596.68C493.668 595.784 490.719 595.336 487.21 595.336C485.119 595.336 483.402 595.746 482.058 596.568C480.714 597.314 480.042 598.546 480.042 600.264C480.042 601.384 480.49 602.317 481.386 603.064C482.282 603.81 483.588 604.52 485.306 605.192C487.023 605.864 489.076 606.648 491.466 607.544L499.866 611.016C503.151 612.21 505.914 613.741 508.154 615.608C510.468 617.4 512.223 619.565 513.418 622.104C514.612 624.642 515.21 627.592 515.21 630.952C515.21 635.058 514.09 638.904 511.85 642.488C509.61 645.997 506.324 648.834 501.994 651C497.663 653.165 492.362 654.248 486.09 654.248ZM553.694 654.248C548.766 654.248 544.099 653.09 539.694 650.776C535.288 648.461 531.704 645.138 528.942 640.808C526.179 636.402 524.798 631.101 524.798 624.904C524.798 618.706 526.179 613.442 528.942 609.112C531.704 604.706 535.288 601.346 539.694 599.032C544.099 596.717 548.766 595.56 553.694 595.56C558.622 595.56 563.288 596.717 567.694 599.032C572.099 601.346 575.683 604.706 578.446 609.112C581.208 613.442 582.59 618.706 582.59 624.904C582.59 631.101 581.208 636.402 578.446 640.808C575.683 645.138 572.099 648.461 567.694 650.776C563.288 653.09 558.622 654.248 553.694 654.248ZM553.694 638.792C555.859 638.792 557.614 638.232 558.958 637.112C560.302 635.992 561.272 634.386 561.87 632.296C562.542 630.205 562.878 627.741 562.878 624.904C562.878 622.066 562.542 619.602 561.87 617.512C561.272 615.421 560.302 613.816 558.958 612.696C557.614 611.576 555.859 611.016 553.694 611.016C551.528 611.016 549.774 611.576 548.43 612.696C547.086 613.816 546.078 615.421 545.406 617.512C544.808 619.602 544.51 622.066 544.51 624.904C544.51 627.741 544.808 630.205 545.406 632.296C546.078 634.386 547.086 635.992 548.43 637.112C549.774 638.232 551.528 638.792 553.694 638.792ZM611.218 654.248C604.946 654.248 600.429 652.194 597.666 648.088C594.903 643.906 593.522 638.344 593.522 631.4V596.904H612.786V628.936C612.786 632.072 613.197 634.349 614.018 635.768C614.914 637.186 616.631 637.896 619.17 637.896C620.813 637.896 622.269 637.597 623.538 637C624.807 636.328 626.151 634.984 627.57 632.968V596.904H646.834V652.904H631.154L629.81 645.512H629.362C627.047 648.2 624.434 650.328 621.522 651.896C618.61 653.464 615.175 654.248 611.218 654.248ZM666.054 652.904V596.904H681.846L683.302 608.776H683.75C686.438 604.146 689.686 600.786 693.494 598.696C697.377 596.605 701.409 595.56 705.59 595.56C708.204 595.56 710.22 595.784 711.638 596.232C713.132 596.605 714.662 597.128 716.23 597.8L712.422 613.928C710.78 613.405 709.249 613.032 707.83 612.808C706.412 612.509 704.694 612.36 702.678 612.36C699.468 612.36 696.294 613.33 693.158 615.272C690.022 617.138 687.409 620.424 685.318 625.128V652.904H666.054ZM759.867 654.248C753.968 654.248 748.629 653.09 743.851 650.776C739.147 648.461 735.413 645.138 732.651 640.808C729.888 636.402 728.507 631.101 728.507 624.904C728.507 618.706 730.037 613.442 733.099 609.112C736.16 604.706 740.192 601.346 745.195 599.032C750.197 596.717 755.573 595.56 761.323 595.56C765.728 595.56 769.76 596.232 773.419 597.576C777.152 598.92 780.176 600.712 782.491 602.952L773.755 614.824C771.664 613.405 769.685 612.434 767.819 611.912C766.027 611.314 764.235 611.016 762.443 611.016C759.68 611.016 757.216 611.576 755.051 612.696C752.885 613.816 751.205 615.421 750.011 617.512C748.816 619.602 748.219 622.066 748.219 624.904C748.219 627.741 748.779 630.205 749.899 632.296C751.093 634.386 752.699 635.992 754.715 637.112C756.805 638.232 759.157 638.792 761.771 638.792C764.533 638.792 767.035 638.306 769.275 637.336C771.589 636.365 773.68 635.282 775.547 634.088L783.163 646.184C779.728 649.021 775.92 651.074 771.739 652.344C767.557 653.613 763.6 654.248 759.867 654.248ZM825.679 654.248C819.78 654.248 814.441 653.09 809.663 650.776C804.959 648.461 801.225 645.138 798.463 640.808C795.7 636.402 794.319 631.101 794.319 624.904C794.319 618.781 795.7 613.554 798.463 609.224C801.3 604.818 804.959 601.458 809.439 599.144C813.919 596.754 818.66 595.56 823.663 595.56C829.561 595.56 834.489 596.792 838.447 599.256C842.404 601.645 845.353 604.893 847.295 609C849.311 613.106 850.319 617.661 850.319 622.664C850.319 624.306 850.207 625.912 849.983 627.48C849.833 628.973 849.684 630.056 849.535 630.728H808.879V618.184H836.207L833.519 621.544C833.519 617.81 832.772 614.973 831.279 613.032C829.785 611.09 827.471 610.12 824.335 610.12C821.871 610.12 819.78 610.642 818.063 611.688C816.42 612.733 815.151 614.376 814.255 616.616C813.359 618.781 812.911 621.544 812.911 624.904C812.911 628.413 813.471 631.25 814.591 633.416C815.785 635.581 817.503 637.186 819.743 638.232C822.057 639.202 824.932 639.688 828.367 639.688C830.607 639.688 832.772 639.426 834.863 638.904C837.028 638.306 839.343 637.448 841.807 636.328L848.079 647.752C844.719 649.842 841.023 651.448 836.991 652.568C832.959 653.688 829.188 654.248 825.679 654.248ZM963.127 654.248C958.573 654.248 954.205 653.501 950.023 652.008C945.917 650.44 942.258 648.125 939.047 645.064C935.837 641.928 933.298 638.045 931.431 633.416C929.565 628.712 928.631 623.261 928.631 617.064C928.631 608.925 930.237 602.018 933.447 596.344C936.658 590.594 940.951 586.226 946.327 583.24C951.703 580.253 957.677 578.76 964.247 578.76C968.951 578.76 973.207 579.73 977.015 581.672C980.898 583.538 984.109 585.704 986.647 588.168L976.119 600.04C974.477 598.546 972.685 597.389 970.743 596.568C968.877 595.746 966.711 595.336 964.247 595.336C961.261 595.336 958.573 596.194 956.183 597.912C953.794 599.554 951.89 601.944 950.471 605.08C949.053 608.216 948.343 611.986 948.343 616.392C948.343 620.946 949.053 624.829 950.471 628.04C951.89 631.176 953.869 633.565 956.407 635.208C958.946 636.85 961.858 637.672 965.143 637.672C967.533 637.672 969.698 637.112 971.639 635.992C973.655 634.872 975.447 633.49 977.015 631.848L987.543 643.496C984.557 647.08 980.973 649.768 976.791 651.56C972.61 653.352 968.055 654.248 963.127 654.248ZM1023.79 654.248C1018.86 654.248 1014.19 653.09 1009.79 650.776C1005.38 648.461 1001.8 645.138 999.036 640.808C996.273 636.402 994.892 631.101 994.892 624.904C994.892 618.706 996.273 613.442 999.036 609.112C1001.8 604.706 1005.38 601.346 1009.79 599.032C1014.19 596.717 1018.86 595.56 1023.79 595.56C1028.72 595.56 1033.38 596.717 1037.79 599.032C1042.19 601.346 1045.78 604.706 1048.54 609.112C1051.3 613.442 1052.68 618.706 1052.68 624.904C1052.68 631.101 1051.3 636.402 1048.54 640.808C1045.78 645.138 1042.19 648.461 1037.79 650.776C1033.38 653.09 1028.72 654.248 1023.79 654.248ZM1023.79 638.792C1025.95 638.792 1027.71 638.232 1029.05 637.112C1030.4 635.992 1031.37 634.386 1031.96 632.296C1032.64 630.205 1032.97 627.741 1032.97 624.904C1032.97 622.066 1032.64 619.602 1031.96 617.512C1031.37 615.421 1030.4 613.816 1029.05 612.696C1027.71 611.576 1025.95 611.016 1023.79 611.016C1021.62 611.016 1019.87 611.576 1018.52 612.696C1017.18 613.816 1016.17 615.421 1015.5 617.512C1014.9 619.602 1014.6 622.066 1014.6 624.904C1014.6 627.741 1014.9 630.205 1015.5 632.296C1016.17 634.386 1017.18 635.992 1018.52 637.112C1019.87 638.232 1021.62 638.792 1023.79 638.792ZM1101.14 654.248C1093.67 654.248 1088.03 652.008 1084.22 647.528C1080.49 642.973 1078.62 637.074 1078.62 629.832V589.96H1061.82V574.952H1097.89V630.504C1097.89 633.714 1098.78 635.917 1100.58 637.112C1102.44 638.232 1104.35 638.792 1106.29 638.792C1107.48 638.792 1108.71 638.68 1109.98 638.456C1111.25 638.157 1112.71 637.746 1114.35 637.224L1118.5 651.336C1115.51 652.232 1112.78 652.941 1110.32 653.464C1107.86 653.986 1104.79 654.248 1101.14 654.248ZM1168.29 654.248C1160.83 654.248 1155.19 652.008 1151.38 647.528C1147.65 642.973 1145.78 637.074 1145.78 629.832V589.96H1128.98V574.952H1165.04V630.504C1165.04 633.714 1165.94 635.917 1167.73 637.112C1169.6 638.232 1171.5 638.792 1173.44 638.792C1174.64 638.792 1175.87 638.68 1177.14 638.456C1178.41 638.157 1179.87 637.746 1181.51 637.224L1185.65 651.336C1182.67 652.232 1179.94 652.941 1177.48 653.464C1175.01 653.986 1171.95 654.248 1168.29 654.248ZM1215.85 654.248C1211.97 654.248 1208.68 653.464 1205.99 651.896C1203.3 650.253 1201.25 648.125 1199.83 645.512C1198.41 642.898 1197.7 640.061 1197.7 637C1197.7 630.728 1200.39 625.949 1205.77 622.664C1211.22 619.304 1220.33 617.288 1233.1 616.616C1232.87 615.272 1232.31 614.189 1231.42 613.368C1230.52 612.472 1229.29 611.837 1227.72 611.464C1226.23 611.016 1224.43 610.792 1222.34 610.792C1220.78 610.792 1219.17 610.978 1217.53 611.352C1215.89 611.65 1214.13 612.173 1212.26 612.92C1210.47 613.592 1208.46 614.45 1206.22 615.496L1199.5 602.952C1202.33 601.384 1205.21 600.04 1208.12 598.92C1211.03 597.8 1213.98 596.978 1216.97 596.456C1219.95 595.858 1223.02 595.56 1226.15 595.56C1231.45 595.56 1236.05 596.493 1239.93 598.36C1243.89 600.152 1246.95 602.989 1249.11 606.872C1251.28 610.68 1252.36 615.645 1252.36 621.768V652.904H1236.68L1235.34 647.08H1234.89C1232.13 649.096 1229.14 650.813 1225.93 652.232C1222.72 653.576 1219.36 654.248 1215.85 654.248ZM1222.12 639.464C1224.36 639.464 1226.38 639.053 1228.17 638.232C1229.96 637.336 1231.6 636.328 1233.1 635.208V628.04C1228.54 628.189 1225.03 628.6 1222.57 629.272C1220.1 629.944 1218.39 630.84 1217.42 631.96C1216.52 633.005 1216.07 634.162 1216.07 635.432C1216.07 636.253 1216.3 637 1216.74 637.672C1217.19 638.269 1217.86 638.717 1218.76 639.016C1219.66 639.314 1220.78 639.464 1222.12 639.464ZM1297.45 654.248C1294.91 654.248 1292.41 653.65 1289.95 652.456C1287.48 651.186 1285.17 649.32 1283 646.856H1282.56L1280.99 652.904H1265.98V574.952H1285.24V593.096L1284.57 601.16H1285.02C1286.96 599.368 1289.13 597.986 1291.52 597.016C1293.98 596.045 1296.48 595.56 1299.02 595.56C1303.58 595.56 1307.5 596.754 1310.78 599.144C1314.14 601.458 1316.72 604.744 1318.51 609C1320.38 613.181 1321.31 618.146 1321.31 623.896C1321.31 630.317 1320.15 635.805 1317.84 640.36C1315.6 644.914 1312.65 648.386 1308.99 650.776C1305.4 653.09 1301.56 654.248 1297.45 654.248ZM1292.86 638.568C1294.43 638.568 1295.85 638.12 1297.12 637.224C1298.46 636.328 1299.54 634.834 1300.36 632.744C1301.19 630.653 1301.6 627.816 1301.6 624.232C1301.6 621.17 1301.26 618.706 1300.59 616.84C1299.99 614.898 1299.1 613.48 1297.9 612.584C1296.71 611.688 1295.18 611.24 1293.31 611.24C1291.82 611.24 1290.43 611.538 1289.16 612.136C1287.9 612.733 1286.59 613.778 1285.24 615.272V635.88C1286.44 636.85 1287.67 637.56 1288.94 638.008C1290.28 638.381 1291.59 638.568 1292.86 638.568ZM1359.57 654.248C1354.64 654.248 1349.97 653.09 1345.57 650.776C1341.16 648.461 1337.58 645.138 1334.82 640.808C1332.05 636.402 1330.67 631.101 1330.67 624.904C1330.67 618.706 1332.05 613.442 1334.82 609.112C1337.58 604.706 1341.16 601.346 1345.57 599.032C1349.97 596.717 1354.64 595.56 1359.57 595.56C1364.5 595.56 1369.16 596.717 1373.57 599.032C1377.97 601.346 1381.56 604.706 1384.32 609.112C1387.08 613.442 1388.46 618.706 1388.46 624.904C1388.46 631.101 1387.08 636.402 1384.32 640.808C1381.56 645.138 1377.97 648.461 1373.57 650.776C1369.16 653.09 1364.5 654.248 1359.57 654.248ZM1359.57 638.792C1361.73 638.792 1363.49 638.232 1364.83 637.112C1366.18 635.992 1367.15 634.386 1367.74 632.296C1368.42 630.205 1368.75 627.741 1368.75 624.904C1368.75 622.066 1368.42 619.602 1367.74 617.512C1367.15 615.421 1366.18 613.816 1364.83 612.696C1363.49 611.576 1361.73 611.016 1359.57 611.016C1357.4 611.016 1355.65 611.576 1354.3 612.696C1352.96 613.816 1351.95 615.421 1351.28 617.512C1350.68 619.602 1350.38 622.066 1350.38 624.904C1350.38 627.741 1350.68 630.205 1351.28 632.296C1351.95 634.386 1352.96 635.992 1354.3 637.112C1355.65 638.232 1357.4 638.792 1359.57 638.792ZM1404.77 652.904V596.904H1420.57L1422.02 608.776H1422.47C1425.16 604.146 1428.41 600.786 1432.21 598.696C1436.1 596.605 1440.13 595.56 1444.31 595.56C1446.92 595.56 1448.94 595.784 1450.36 596.232C1451.85 596.605 1453.38 597.128 1454.95 597.8L1451.14 613.928C1449.5 613.405 1447.97 613.032 1446.55 612.808C1445.13 612.509 1443.41 612.36 1441.4 612.36C1438.19 612.36 1435.01 613.33 1431.88 615.272C1428.74 617.138 1426.13 620.424 1424.04 625.128V652.904H1404.77ZM1484.47 654.248C1480.59 654.248 1477.31 653.464 1474.62 651.896C1471.93 650.253 1469.88 648.125 1468.46 645.512C1467.04 642.898 1466.33 640.061 1466.33 637C1466.33 630.728 1469.02 625.949 1474.39 622.664C1479.84 619.304 1488.95 617.288 1501.72 616.616C1501.5 615.272 1500.94 614.189 1500.04 613.368C1499.15 612.472 1497.91 611.837 1496.35 611.464C1494.85 611.016 1493.06 610.792 1490.97 610.792C1489.4 610.792 1487.8 610.978 1486.15 611.352C1484.51 611.65 1482.76 612.173 1480.89 612.92C1479.1 613.592 1477.08 614.45 1474.84 615.496L1468.12 602.952C1470.96 601.384 1473.83 600.04 1476.75 598.92C1479.66 597.8 1482.61 596.978 1485.59 596.456C1488.58 595.858 1491.64 595.56 1494.78 595.56C1500.08 595.56 1504.67 596.493 1508.55 598.36C1512.51 600.152 1515.57 602.989 1517.74 606.872C1519.9 610.68 1520.99 615.645 1520.99 621.768V652.904H1505.31L1503.96 647.08H1503.51C1500.75 649.096 1497.76 650.813 1494.55 652.232C1491.34 653.576 1487.98 654.248 1484.47 654.248ZM1490.75 639.464C1492.99 639.464 1495 639.053 1496.79 638.232C1498.59 637.336 1500.23 636.328 1501.72 635.208V628.04C1497.17 628.189 1493.66 628.6 1491.19 629.272C1488.73 629.944 1487.01 630.84 1486.04 631.96C1485.15 633.005 1484.7 634.162 1484.7 635.432C1484.7 636.253 1484.92 637 1485.37 637.672C1485.82 638.269 1486.49 638.717 1487.39 639.016C1488.28 639.314 1489.4 639.464 1490.75 639.464ZM1570.67 654.248C1564.55 654.248 1559.66 653.202 1556 651.112C1552.34 649.021 1549.69 646.109 1548.05 642.376C1546.4 638.568 1545.58 634.162 1545.58 629.16V611.912H1532.14V597.576L1546.48 596.904L1548.94 580.104H1564.85V596.904H1587.02V611.912H1564.85V628.824C1564.85 631.437 1565.26 633.528 1566.08 635.096C1566.9 636.589 1568.09 637.672 1569.66 638.344C1571.3 638.941 1573.32 639.24 1575.71 639.24C1577.65 639.24 1579.44 639.09 1581.09 638.792C1582.8 638.418 1584.41 637.97 1585.9 637.448L1589.26 651.336C1586.8 652.008 1584.03 652.642 1580.97 653.24C1577.91 653.912 1574.48 654.248 1570.67 654.248ZM1624.16 652.904V611.912H1602.88V596.904H1643.43V652.904H1624.16ZM1633.12 589.288C1629.54 589.288 1626.59 588.28 1624.27 586.264C1621.96 584.173 1620.8 581.448 1620.8 578.088C1620.8 574.728 1621.96 572.002 1624.27 569.912C1626.59 567.746 1629.54 566.664 1633.12 566.664C1636.71 566.664 1639.66 567.746 1641.97 569.912C1644.28 572.002 1645.44 574.728 1645.44 578.088C1645.44 581.448 1644.28 584.173 1641.97 586.264C1639.66 588.28 1636.71 589.288 1633.12 589.288ZM1684.6 652.904L1664.44 596.904H1683.7L1690.98 621.32C1691.8 624.082 1692.59 626.92 1693.33 629.832C1694.08 632.744 1694.83 635.73 1695.57 638.792H1696.02C1696.84 635.73 1697.59 632.744 1698.26 629.832C1699.01 626.92 1699.79 624.082 1700.61 621.32L1707.89 596.904H1726.26L1706.77 652.904H1684.6ZM1765.87 654.248C1759.97 654.248 1754.63 653.09 1749.85 650.776C1745.15 648.461 1741.41 645.138 1738.65 640.808C1735.89 636.402 1734.51 631.101 1734.51 624.904C1734.51 618.781 1735.89 613.554 1738.65 609.224C1741.49 604.818 1745.15 601.458 1749.63 599.144C1754.11 596.754 1758.85 595.56 1763.85 595.56C1769.75 595.56 1774.68 596.792 1778.63 599.256C1782.59 601.645 1785.54 604.893 1787.48 609C1789.5 613.106 1790.51 617.661 1790.51 622.664C1790.51 624.306 1790.39 625.912 1790.17 627.48C1790.02 628.973 1789.87 630.056 1789.72 630.728H1749.07V618.184H1776.39L1773.71 621.544C1773.71 617.81 1772.96 614.973 1771.47 613.032C1769.97 611.09 1767.66 610.12 1764.52 610.12C1762.06 610.12 1759.97 610.642 1758.25 611.688C1756.61 612.733 1755.34 614.376 1754.44 616.616C1753.55 618.781 1753.1 621.544 1753.1 624.904C1753.1 628.413 1753.66 631.25 1754.78 633.416C1755.97 635.581 1757.69 637.186 1759.93 638.232C1762.24 639.202 1765.12 639.688 1768.55 639.688C1770.79 639.688 1772.96 639.426 1775.05 638.904C1777.22 638.306 1779.53 637.448 1781.99 636.328L1788.27 647.752C1784.91 649.842 1781.21 651.448 1777.18 652.568C1773.15 653.688 1769.38 654.248 1765.87 654.248ZM1803.23 670.824L1840.19 573.384H1856.09L1819.13 670.824H1803.23ZM1873.75 650.216V632.968L1901.97 615.944V615.496L1873.75 598.472V581.224L1917.65 609.224V622.216L1873.75 650.216Z" fill="white"/>
</svg>
