<svg width="1883" height="636" viewBox="0 0 1883 636" fill="none" xmlns="http://www.w3.org/2000/svg">
<path d="M327.092 237.522C392.395 237.522 445.333 184.575 445.333 119.261C445.333 53.9472 392.395 1 327.092 1C261.789 1 208.851 53.9472 208.851 119.261C208.851 184.575 261.789 237.522 327.092 237.522Z" fill="#EFBF28"/>
<path d="M572.855 237.522C638.157 237.522 691.096 184.575 691.096 119.261C691.096 53.9472 638.157 1 572.855 1C507.552 1 454.613 53.9472 454.613 119.261C454.613 184.575 507.552 237.522 572.855 237.522Z" fill="#00AACC"/>
<path d="M572.855 485.045C638.157 485.045 691.096 432.098 691.096 366.784C691.096 301.47 638.157 248.523 572.855 248.523C507.552 248.523 454.613 301.47 454.613 366.784C454.613 432.098 507.552 485.045 572.855 485.045Z" fill="#EB2329"/>
<path d="M818.618 237.522C883.921 237.522 936.86 184.575 936.86 119.261C936.86 53.9472 883.921 1 818.618 1C753.315 1 700.377 53.9472 700.377 119.261C700.377 184.575 753.315 237.522 818.618 237.522Z" fill="#008E49"/>
<path d="M1064.38 237.522C1129.68 237.522 1182.62 184.575 1182.62 119.261C1182.62 53.9472 1129.68 1 1064.38 1C999.079 1 946.141 53.9472 946.141 119.261C946.141 184.575 999.079 237.522 1064.38 237.522Z" fill="#0065A6"/>
<path d="M1310.14 485.045C1375.45 485.045 1428.39 432.098 1428.39 366.784C1428.39 301.47 1375.45 248.523 1310.14 248.523C1244.84 248.523 1191.9 301.47 1191.9 366.784C1191.9 432.098 1244.84 485.045 1310.14 485.045Z" fill="#7B7D7E"/>
<path d="M1555.91 485.045C1621.21 485.045 1674.15 432.098 1674.15 366.784C1674.15 301.47 1621.21 248.523 1555.91 248.523C1490.6 248.523 1437.67 301.47 1437.67 366.784C1437.67 432.098 1490.6 485.045 1555.91 485.045Z" fill="#955D29"/>
<path d="M327.092 485.045C392.395 485.045 445.333 432.098 445.333 366.784C445.333 301.47 392.395 248.523 327.092 248.523C261.789 248.523 208.851 301.47 208.851 366.784C208.851 432.098 261.789 485.045 327.092 485.045Z" fill="#6ABA4B"/>
<path d="M818.618 485.045C883.921 485.045 936.86 432.098 936.86 366.784C936.86 301.47 883.921 248.523 818.618 248.523C753.315 248.523 700.377 301.47 700.377 366.784C700.377 432.098 753.315 485.045 818.618 485.045Z" fill="#A73C93"/>
<path d="M1064.38 485.904C1130.16 485.904 1183.48 432.572 1183.48 366.783C1183.48 300.995 1130.16 247.663 1064.38 247.663C998.604 247.663 945.281 300.995 945.281 366.783C945.281 432.572 998.604 485.904 1064.38 485.904Z" fill="#EA891D"/>
<path d="M379.579 153.691C375.54 161.821 369.302 168.49 360.88 173.664C352.459 178.855 342.921 181.434 332.3 181.434C314.546 181.434 300.333 176.5 289.644 166.634C278.954 156.767 273.626 142.81 273.626 124.727C273.626 106.644 278.902 91.1395 289.455 79.9494C300.007 68.7593 313.704 63.1729 330.547 63.1729C342.663 63.1729 352.7 65.8715 360.64 71.2689C368.58 76.6663 374.681 84.092 378.943 93.5631L356.137 102.089C353.525 96.2962 350.191 92.1021 346.135 89.5237C342.062 86.9454 337.043 85.6562 331.028 85.6562C322.211 85.6562 314.942 89.1456 309.27 96.1415C303.582 103.137 300.746 112.041 300.746 122.888C300.746 134.318 303.668 143.119 309.511 149.273C315.354 155.427 323.277 158.521 333.262 158.521C338.779 158.521 343.626 157.249 347.767 154.688C351.909 152.126 355.123 148.362 357.409 143.36L379.579 153.639V153.691Z" fill="black"/>
<path d="M572.34 181.434C555.858 181.434 542.333 176.105 531.763 165.448C521.194 154.791 515.9 140.902 515.9 123.781C515.9 105.716 521.262 91.0878 532.004 79.9321C542.745 68.7764 556.804 63.1899 574.179 63.1899C590.609 63.1899 603.98 68.5357 614.326 79.2102C624.655 89.9018 629.828 103.98 629.828 121.461C629.828 138.942 624.466 153.914 613.759 164.915C603.052 175.916 589.251 181.416 572.34 181.416V181.434ZM572.821 158.864C581.81 158.864 589.028 155.684 594.51 149.342C599.993 142.999 602.725 134.181 602.725 122.905C602.725 111.629 600.061 102.02 594.751 95.471C589.44 88.9392 582.342 85.6561 573.457 85.6561C564.572 85.6561 556.958 89.0251 551.373 95.7461C545.787 102.467 543.003 111.354 543.003 122.424C543.003 133.493 545.787 142.518 551.373 149.049C556.958 155.581 564.091 158.864 572.821 158.864Z" fill="white"/>
<path d="M572.34 428.957C555.858 428.957 542.333 423.628 531.763 412.971C521.194 402.314 515.9 388.425 515.9 371.304C515.9 353.239 521.262 338.611 532.004 327.455C542.745 316.299 556.804 310.713 574.179 310.713C590.609 310.713 603.98 316.059 614.326 326.733C624.655 337.425 629.828 351.503 629.828 368.984C629.828 386.465 624.466 401.437 613.759 412.438C603.052 423.439 589.251 428.939 572.34 428.939V428.957ZM572.821 406.387C581.81 406.387 589.028 403.207 594.51 396.865C599.993 390.522 602.725 381.704 602.725 370.428C602.725 359.152 600.061 349.543 594.751 342.994C589.44 336.462 582.342 333.179 573.457 333.179C564.572 333.179 556.958 336.548 551.373 343.269C545.787 349.99 543.003 358.877 543.003 369.946C543.003 381.016 545.787 390.041 551.373 396.572C556.958 403.104 564.091 406.387 572.821 406.387Z" fill="white"/>
<path d="M771.494 179.44V65.0981H811.985C832.282 65.0981 847.509 69.7392 857.666 79.0041C867.823 88.2862 872.893 102.227 872.893 120.825C872.893 139.424 867.359 152.848 856.274 163.488C845.189 174.128 830.426 179.44 811.985 179.44H771.494ZM797.239 86.4642V158.057H809.991C821.145 158.057 829.91 154.756 836.269 148.121C842.611 141.504 845.79 132.514 845.79 121.135C845.79 110.34 842.645 101.866 836.338 95.6947C830.048 89.5238 821.214 86.447 809.837 86.447H797.239V86.4642Z" fill="white"/>
<path d="M1102.57 179.44H1034.01V65.0981H1099.94V86.4642H1059.76V111.337H1097.14V132.548H1059.76V158.057H1102.57V179.423V179.44Z" fill="white"/>
<path d="M1348.33 426.962H1279.78V312.621H1345.7V333.987H1305.52V358.859H1342.9V380.071H1305.52V405.579H1348.33V426.945V426.962Z" fill="white"/>
<path d="M1594.1 426.962H1525.54V312.621H1591.47V333.987H1551.28V358.859H1588.67V380.071H1551.28V405.579H1594.1V426.945V426.962Z" fill="white"/>
<path d="M379.579 401.213C375.54 409.344 369.302 416.013 360.88 421.187C352.459 426.378 342.921 428.957 332.3 428.957C314.546 428.957 300.333 424.023 289.644 414.174C278.954 404.307 273.626 390.35 273.626 372.267C273.626 354.184 278.902 338.68 289.455 327.489C300.007 316.299 313.704 310.713 330.547 310.713C342.663 310.713 352.7 313.412 360.64 318.809C368.58 324.206 374.681 331.632 378.943 341.086L356.137 349.612C353.525 343.819 350.191 339.625 346.135 337.047C342.062 334.468 337.043 333.179 331.028 333.179C322.211 333.179 314.942 336.668 309.27 343.664C303.599 350.66 300.746 359.564 300.746 370.411C300.746 381.841 303.668 390.642 309.511 396.796C315.354 402.967 323.277 406.044 333.262 406.044C338.779 406.044 343.626 404.772 347.767 402.21C351.909 399.649 355.123 395.885 357.409 390.883L379.579 401.162V401.213Z" fill="white"/>
<path d="M855.328 333.987H814.992V361.489H852.063V382.7H814.992V426.962H789.247V312.621H855.345V333.987H855.328Z" fill="white"/>
<path d="M1101.09 333.987H1060.76V361.489H1097.83V382.7H1060.76V426.962H1035.01V312.621H1101.11V333.987H1101.09Z" fill="white"/>
<path d="M1343.26 162.251L1330.51 150.614C1324.29 155.341 1318.12 158.779 1311.97 160.893C1305.81 163.007 1298.82 164.09 1290.96 164.09C1278.47 164.09 1268.16 161.116 1260.03 155.152C1251.9 149.204 1247.83 140.507 1247.83 129.076C1247.83 121.049 1250.08 114.551 1254.56 109.583C1259.05 104.616 1265.15 100.198 1272.85 96.3134C1268.86 91.9474 1265.98 87.9767 1264.21 84.3498C1262.42 80.7401 1261.54 76.8554 1261.54 72.7128C1261.54 64.7886 1264.74 58.3599 1271.11 53.4095C1277.49 48.459 1285.86 46.001 1296.22 46.001C1306 46.001 1313.96 48.3043 1320.1 52.9454C1326.23 57.5692 1329.31 63.551 1329.31 70.8908C1329.31 76.5803 1327.78 81.5652 1324.72 85.8796C1321.66 90.1769 1315.51 94.5945 1306.26 99.1152L1331.7 122.389C1335.79 117.765 1338.57 112.987 1340.07 108.036C1341.56 103.086 1342.3 97.7745 1342.3 92.0849H1364.3C1364.3 100.8 1362.82 108.655 1359.88 115.651C1356.93 122.647 1352.53 129.385 1346.68 135.865L1375.78 162.251H1343.25H1343.26ZM1315.76 136.897L1286.43 109.222C1282.87 111.13 1279.79 113.554 1277.22 116.476C1274.64 119.398 1273.35 123.249 1273.35 128.044C1273.35 133.15 1275.1 137.172 1278.61 140.128C1282.11 143.068 1286.67 144.546 1292.24 144.546C1296.17 144.546 1300.06 144.03 1303.91 142.999C1307.76 141.968 1311.71 139.922 1315.75 136.897H1315.76ZM1293.2 87.2204C1297.77 85.364 1301.21 83.3872 1303.53 81.273C1305.85 79.1759 1307 76.2881 1307 72.6269C1307 69.6016 1305.92 67.3154 1303.73 65.7684C1301.55 64.2214 1299.06 63.4479 1296.24 63.4479C1292.68 63.4479 1289.78 64.3589 1287.54 66.1981C1285.31 68.0374 1284.19 70.3063 1284.19 73.0222C1284.19 75.3599 1284.92 77.5773 1286.34 79.6744C1287.79 81.7715 1290.05 84.2811 1293.2 87.2032V87.2204Z" fill="black"/>
<path d="M57.672 601.216L13.768 573.216V560.224L57.672 532.224V549.472L29.448 566.496V566.944L57.672 583.968V601.216ZM101.756 605.248C95.8576 605.248 90.6683 603.829 86.1883 600.992C81.7083 598.154 78.1989 593.936 75.6603 588.336C73.1963 582.661 71.9643 575.605 71.9643 567.168C71.9643 558.954 73.1963 552.085 75.6603 546.56C78.1989 540.96 81.7083 536.778 86.1883 534.016C90.6683 531.178 95.8576 529.76 101.756 529.76C107.655 529.76 112.844 531.178 117.324 534.016C121.804 536.778 125.276 540.96 127.74 546.56C130.279 552.085 131.548 558.954 131.548 567.168C131.548 575.605 130.279 582.661 127.74 588.336C125.276 593.936 121.804 598.154 117.324 600.992C112.844 603.829 107.655 605.248 101.756 605.248ZM101.756 588.672C103.847 588.672 105.639 587.888 107.132 586.32C108.626 584.752 109.783 582.4 110.604 579.264C111.426 576.053 111.836 572.021 111.836 567.168C111.836 562.538 111.426 558.693 110.604 555.632C109.783 552.496 108.626 550.181 107.132 548.688C105.639 547.12 103.847 546.336 101.756 546.336C99.6656 546.336 97.8736 547.12 96.3803 548.688C94.8869 550.181 93.7296 552.496 92.9083 555.632C92.0869 558.693 91.6763 562.538 91.6763 567.168C91.6763 572.021 92.0869 576.053 92.9083 579.264C93.7296 582.4 94.8869 584.752 96.3803 586.32C97.8736 587.888 99.6656 588.672 101.756 588.672ZM142.481 623.616V547.904H158.161L159.505 553.056H159.953C162.118 551.114 164.545 549.546 167.233 548.352C169.995 547.157 172.795 546.56 175.633 546.56C180.187 546.56 184.107 547.754 187.393 550.144C190.678 552.458 193.217 555.744 195.009 560C196.875 564.256 197.809 569.258 197.809 575.008C197.809 581.429 196.651 586.917 194.337 591.472C192.097 595.952 189.147 599.386 185.489 601.776C181.905 604.09 178.059 605.248 173.953 605.248C171.563 605.248 169.286 604.762 167.121 603.792C165.03 602.821 163.089 601.44 161.297 599.648H160.849L161.745 608.16V623.616H142.481ZM169.361 589.568C170.929 589.568 172.347 589.12 173.617 588.224C174.961 587.328 176.043 585.834 176.865 583.744C177.686 581.653 178.097 578.816 178.097 575.232C178.097 572.17 177.761 569.706 177.089 567.84C176.491 565.898 175.595 564.48 174.401 563.584C173.206 562.688 171.675 562.24 169.809 562.24C168.315 562.24 166.934 562.538 165.665 563.136C164.395 563.733 163.089 564.778 161.745 566.272V586.88C162.939 587.85 164.171 588.56 165.441 589.008C166.785 589.381 168.091 589.568 169.361 589.568ZM239.429 605.248C233.53 605.248 228.191 604.09 223.413 601.776C218.709 599.461 214.975 596.138 212.213 591.808C209.45 587.402 208.069 582.101 208.069 575.904C208.069 569.781 209.45 564.554 212.213 560.224C215.05 555.818 218.709 552.458 223.189 550.144C227.669 547.754 232.41 546.56 237.413 546.56C243.311 546.56 248.239 547.792 252.197 550.256C256.154 552.645 259.103 555.893 261.045 560C263.061 564.106 264.069 568.661 264.069 573.664C264.069 575.306 263.957 576.912 263.733 578.48C263.583 579.973 263.434 581.056 263.285 581.728H222.629V569.184H249.957L247.269 572.544C247.269 568.81 246.522 565.973 245.029 564.032C243.535 562.09 241.221 561.12 238.085 561.12C235.621 561.12 233.53 561.642 231.813 562.688C230.17 563.733 228.901 565.376 228.005 567.616C227.109 569.781 226.661 572.544 226.661 575.904C226.661 579.413 227.221 582.25 228.341 584.416C229.535 586.581 231.253 588.186 233.493 589.232C235.807 590.202 238.682 590.688 242.117 590.688C244.357 590.688 246.522 590.426 248.613 589.904C250.778 589.306 253.093 588.448 255.557 587.328L261.829 598.752C258.469 600.842 254.773 602.448 250.741 603.568C246.709 604.688 242.938 605.248 239.429 605.248ZM276.793 603.904V547.904H292.473L293.817 554.624H294.265C296.505 552.458 299.156 550.592 302.217 549.024C305.278 547.381 308.862 546.56 312.969 546.56C319.166 546.56 323.684 548.65 326.521 552.832C329.358 556.938 330.777 562.464 330.777 569.408V603.904H311.513V571.872C311.513 568.736 311.028 566.458 310.057 565.04C309.161 563.621 307.481 562.912 305.017 562.912C303.225 562.912 301.657 563.285 300.313 564.032C298.969 564.778 297.55 565.824 296.057 567.168V603.904H276.793ZM437.09 605.248C432.311 605.248 427.42 604.389 422.418 602.672C417.49 600.954 412.972 598.341 408.866 594.832L419.842 581.616C422.604 583.706 425.554 585.424 428.69 586.768C431.9 588.037 435.148 588.672 438.434 588.672C441.346 588.672 443.399 588.261 444.594 587.44C445.863 586.618 446.498 585.61 446.498 584.416C446.498 582.997 446.087 581.877 445.266 581.056C444.444 580.234 443.25 579.488 441.682 578.816C440.114 578.144 438.21 577.36 435.97 576.464L426.898 572.656C424.135 571.61 421.559 570.192 419.17 568.4C416.855 566.533 414.988 564.293 413.57 561.68C412.226 558.992 411.554 555.893 411.554 552.384C411.554 548.202 412.711 544.432 415.026 541.072C417.34 537.637 420.588 534.912 424.77 532.896C428.951 530.805 433.804 529.76 439.33 529.76C443.66 529.76 447.991 530.581 452.322 532.224C456.727 533.792 460.684 536.218 464.194 539.504L454.562 551.6C451.948 549.882 449.447 548.576 447.058 547.68C444.668 546.784 441.719 546.336 438.21 546.336C436.119 546.336 434.402 546.746 433.058 547.568C431.714 548.314 431.042 549.546 431.042 551.264C431.042 552.384 431.49 553.317 432.386 554.064C433.282 554.81 434.588 555.52 436.306 556.192C438.023 556.864 440.076 557.648 442.466 558.544L450.866 562.016C454.151 563.21 456.914 564.741 459.154 566.608C461.468 568.4 463.223 570.565 464.418 573.104C465.612 575.642 466.21 578.592 466.21 581.952C466.21 586.058 465.09 589.904 462.85 593.488C460.61 596.997 457.324 599.834 452.994 602C448.663 604.165 443.362 605.248 437.09 605.248ZM504.694 605.248C499.766 605.248 495.099 604.09 490.694 601.776C486.288 599.461 482.704 596.138 479.942 591.808C477.179 587.402 475.798 582.101 475.798 575.904C475.798 569.706 477.179 564.442 479.942 560.112C482.704 555.706 486.288 552.346 490.694 550.032C495.099 547.717 499.766 546.56 504.694 546.56C509.622 546.56 514.288 547.717 518.694 550.032C523.099 552.346 526.683 555.706 529.446 560.112C532.208 564.442 533.59 569.706 533.59 575.904C533.59 582.101 532.208 587.402 529.446 591.808C526.683 596.138 523.099 599.461 518.694 601.776C514.288 604.09 509.622 605.248 504.694 605.248ZM504.694 589.792C506.859 589.792 508.614 589.232 509.958 588.112C511.302 586.992 512.272 585.386 512.87 583.296C513.542 581.205 513.878 578.741 513.878 575.904C513.878 573.066 513.542 570.602 512.87 568.512C512.272 566.421 511.302 564.816 509.958 563.696C508.614 562.576 506.859 562.016 504.694 562.016C502.528 562.016 500.774 562.576 499.43 563.696C498.086 564.816 497.078 566.421 496.406 568.512C495.808 570.602 495.51 573.066 495.51 575.904C495.51 578.741 495.808 581.205 496.406 583.296C497.078 585.386 498.086 586.992 499.43 588.112C500.774 589.232 502.528 589.792 504.694 589.792ZM562.218 605.248C555.946 605.248 551.429 603.194 548.666 599.088C545.903 594.906 544.522 589.344 544.522 582.4V547.904H563.786V579.936C563.786 583.072 564.197 585.349 565.018 586.768C565.914 588.186 567.631 588.896 570.17 588.896C571.813 588.896 573.269 588.597 574.538 588C575.807 587.328 577.151 585.984 578.57 583.968V547.904H597.834V603.904H582.154L580.81 596.512H580.362C578.047 599.2 575.434 601.328 572.522 602.896C569.61 604.464 566.175 605.248 562.218 605.248ZM617.054 603.904V547.904H632.846L634.302 559.776H634.75C637.438 555.146 640.686 551.786 644.494 549.696C648.377 547.605 652.409 546.56 656.59 546.56C659.204 546.56 661.22 546.784 662.638 547.232C664.132 547.605 665.662 548.128 667.23 548.8L663.422 564.928C661.78 564.405 660.249 564.032 658.83 563.808C657.412 563.509 655.694 563.36 653.678 563.36C650.468 563.36 647.294 564.33 644.158 566.272C641.022 568.138 638.409 571.424 636.318 576.128V603.904H617.054ZM710.867 605.248C704.968 605.248 699.629 604.09 694.851 601.776C690.147 599.461 686.413 596.138 683.651 591.808C680.888 587.402 679.507 582.101 679.507 575.904C679.507 569.706 681.037 564.442 684.099 560.112C687.16 555.706 691.192 552.346 696.195 550.032C701.197 547.717 706.573 546.56 712.323 546.56C716.728 546.56 720.76 547.232 724.419 548.576C728.152 549.92 731.176 551.712 733.491 553.952L724.755 565.824C722.664 564.405 720.685 563.434 718.819 562.912C717.027 562.314 715.235 562.016 713.443 562.016C710.68 562.016 708.216 562.576 706.051 563.696C703.885 564.816 702.205 566.421 701.011 568.512C699.816 570.602 699.219 573.066 699.219 575.904C699.219 578.741 699.779 581.205 700.899 583.296C702.093 585.386 703.699 586.992 705.715 588.112C707.805 589.232 710.157 589.792 712.771 589.792C715.533 589.792 718.035 589.306 720.275 588.336C722.589 587.365 724.68 586.282 726.547 585.088L734.163 597.184C730.728 600.021 726.92 602.074 722.739 603.344C718.557 604.613 714.6 605.248 710.867 605.248ZM776.679 605.248C770.78 605.248 765.441 604.09 760.663 601.776C755.959 599.461 752.225 596.138 749.463 591.808C746.7 587.402 745.319 582.101 745.319 575.904C745.319 569.781 746.7 564.554 749.463 560.224C752.3 555.818 755.959 552.458 760.439 550.144C764.919 547.754 769.66 546.56 774.663 546.56C780.561 546.56 785.489 547.792 789.447 550.256C793.404 552.645 796.353 555.893 798.295 560C800.311 564.106 801.319 568.661 801.319 573.664C801.319 575.306 801.207 576.912 800.983 578.48C800.833 579.973 800.684 581.056 800.535 581.728H759.879V569.184H787.207L784.519 572.544C784.519 568.81 783.772 565.973 782.279 564.032C780.785 562.09 778.471 561.12 775.335 561.12C772.871 561.12 770.78 561.642 769.063 562.688C767.42 563.733 766.151 565.376 765.255 567.616C764.359 569.781 763.911 572.544 763.911 575.904C763.911 579.413 764.471 582.25 765.591 584.416C766.785 586.581 768.503 588.186 770.743 589.232C773.057 590.202 775.932 590.688 779.367 590.688C781.607 590.688 783.772 590.426 785.863 589.904C788.028 589.306 790.343 588.448 792.807 587.328L799.079 598.752C795.719 600.842 792.023 602.448 787.991 603.568C783.959 604.688 780.188 605.248 776.679 605.248ZM914.127 605.248C909.573 605.248 905.205 604.501 901.023 603.008C896.917 601.44 893.258 599.125 890.047 596.064C886.837 592.928 884.298 589.045 882.431 584.416C880.565 579.712 879.631 574.261 879.631 568.064C879.631 559.925 881.237 553.018 884.447 547.344C887.658 541.594 891.951 537.226 897.327 534.24C902.703 531.253 908.677 529.76 915.247 529.76C919.951 529.76 924.207 530.73 928.015 532.672C931.898 534.538 935.109 536.704 937.647 539.168L927.119 551.04C925.477 549.546 923.685 548.389 921.743 547.568C919.877 546.746 917.711 546.336 915.247 546.336C912.261 546.336 909.573 547.194 907.183 548.912C904.794 550.554 902.89 552.944 901.471 556.08C900.053 559.216 899.343 562.986 899.343 567.392C899.343 571.946 900.053 575.829 901.471 579.04C902.89 582.176 904.869 584.565 907.407 586.208C909.946 587.85 912.858 588.672 916.143 588.672C918.533 588.672 920.698 588.112 922.639 586.992C924.655 585.872 926.447 584.49 928.015 582.848L938.543 594.496C935.557 598.08 931.973 600.768 927.791 602.56C923.61 604.352 919.055 605.248 914.127 605.248ZM974.788 605.248C969.86 605.248 965.193 604.09 960.788 601.776C956.382 599.461 952.798 596.138 950.036 591.808C947.273 587.402 945.892 582.101 945.892 575.904C945.892 569.706 947.273 564.442 950.036 560.112C952.798 555.706 956.382 552.346 960.788 550.032C965.193 547.717 969.86 546.56 974.788 546.56C979.716 546.56 984.382 547.717 988.788 550.032C993.193 552.346 996.777 555.706 999.54 560.112C1002.3 564.442 1003.68 569.706 1003.68 575.904C1003.68 582.101 1002.3 587.402 999.54 591.808C996.777 596.138 993.193 599.461 988.788 601.776C984.382 604.09 979.716 605.248 974.788 605.248ZM974.788 589.792C976.953 589.792 978.708 589.232 980.052 588.112C981.396 586.992 982.366 585.386 982.964 583.296C983.636 581.205 983.972 578.741 983.972 575.904C983.972 573.066 983.636 570.602 982.964 568.512C982.366 566.421 981.396 564.816 980.052 563.696C978.708 562.576 976.953 562.016 974.788 562.016C972.622 562.016 970.868 562.576 969.524 563.696C968.18 564.816 967.172 566.421 966.5 568.512C965.902 570.602 965.604 573.066 965.604 575.904C965.604 578.741 965.902 581.205 966.5 583.296C967.172 585.386 968.18 586.992 969.524 588.112C970.868 589.232 972.622 589.792 974.788 589.792ZM1052.14 605.248C1044.67 605.248 1039.03 603.008 1035.22 598.528C1031.49 593.973 1029.62 588.074 1029.62 580.832V540.96H1012.82V525.952H1048.89V581.504C1048.89 584.714 1049.78 586.917 1051.58 588.112C1053.44 589.232 1055.35 589.792 1057.29 589.792C1058.48 589.792 1059.71 589.68 1060.98 589.456C1062.25 589.157 1063.71 588.746 1065.35 588.224L1069.5 602.336C1066.51 603.232 1063.78 603.941 1061.32 604.464C1058.86 604.986 1055.79 605.248 1052.14 605.248ZM1119.29 605.248C1111.83 605.248 1106.19 603.008 1102.38 598.528C1098.65 593.973 1096.78 588.074 1096.78 580.832V540.96H1079.98V525.952H1116.04V581.504C1116.04 584.714 1116.94 586.917 1118.73 588.112C1120.6 589.232 1122.5 589.792 1124.44 589.792C1125.64 589.792 1126.87 589.68 1128.14 589.456C1129.41 589.157 1130.87 588.746 1132.51 588.224L1136.65 602.336C1133.67 603.232 1130.94 603.941 1128.48 604.464C1126.01 604.986 1122.95 605.248 1119.29 605.248ZM1166.85 605.248C1162.97 605.248 1159.68 604.464 1156.99 602.896C1154.3 601.253 1152.25 599.125 1150.83 596.512C1149.41 593.898 1148.7 591.061 1148.7 588C1148.7 581.728 1151.39 576.949 1156.77 573.664C1162.22 570.304 1171.33 568.288 1184.1 567.616C1183.87 566.272 1183.31 565.189 1182.42 564.368C1181.52 563.472 1180.29 562.837 1178.72 562.464C1177.23 562.016 1175.43 561.792 1173.34 561.792C1171.78 561.792 1170.17 561.978 1168.53 562.352C1166.89 562.65 1165.13 563.173 1163.26 563.92C1161.47 564.592 1159.46 565.45 1157.22 566.496L1150.5 553.952C1153.33 552.384 1156.21 551.04 1159.12 549.92C1162.03 548.8 1164.98 547.978 1167.97 547.456C1170.95 546.858 1174.02 546.56 1177.15 546.56C1182.45 546.56 1187.05 547.493 1190.93 549.36C1194.89 551.152 1197.95 553.989 1200.11 557.872C1202.28 561.68 1203.36 566.645 1203.36 572.768V603.904H1187.68L1186.34 598.08H1185.89C1183.13 600.096 1180.14 601.813 1176.93 603.232C1173.72 604.576 1170.36 605.248 1166.85 605.248ZM1173.12 590.464C1175.36 590.464 1177.38 590.053 1179.17 589.232C1180.96 588.336 1182.6 587.328 1184.1 586.208V579.04C1179.54 579.189 1176.03 579.6 1173.57 580.272C1171.1 580.944 1169.39 581.84 1168.42 582.96C1167.52 584.005 1167.07 585.162 1167.07 586.432C1167.07 587.253 1167.3 588 1167.74 588.672C1168.19 589.269 1168.86 589.717 1169.76 590.016C1170.66 590.314 1171.78 590.464 1173.12 590.464ZM1248.45 605.248C1245.91 605.248 1243.41 604.65 1240.95 603.456C1238.48 602.186 1236.17 600.32 1234 597.856H1233.56L1231.99 603.904H1216.98V525.952H1236.24V544.096L1235.57 552.16H1236.02C1237.96 550.368 1240.13 548.986 1242.52 548.016C1244.98 547.045 1247.48 546.56 1250.02 546.56C1254.58 546.56 1258.5 547.754 1261.78 550.144C1265.14 552.458 1267.72 555.744 1269.51 560C1271.38 564.181 1272.31 569.146 1272.31 574.896C1272.31 581.317 1271.15 586.805 1268.84 591.36C1266.6 595.914 1263.65 599.386 1259.99 601.776C1256.4 604.09 1252.56 605.248 1248.45 605.248ZM1243.86 589.568C1245.43 589.568 1246.85 589.12 1248.12 588.224C1249.46 587.328 1250.54 585.834 1251.36 583.744C1252.19 581.653 1252.6 578.816 1252.6 575.232C1252.6 572.17 1252.26 569.706 1251.59 567.84C1250.99 565.898 1250.1 564.48 1248.9 563.584C1247.71 562.688 1246.18 562.24 1244.31 562.24C1242.82 562.24 1241.43 562.538 1240.16 563.136C1238.9 563.733 1237.59 564.778 1236.24 566.272V586.88C1237.44 587.85 1238.67 588.56 1239.94 589.008C1241.28 589.381 1242.59 589.568 1243.86 589.568ZM1310.57 605.248C1305.64 605.248 1300.97 604.09 1296.57 601.776C1292.16 599.461 1288.58 596.138 1285.82 591.808C1283.05 587.402 1281.67 582.101 1281.67 575.904C1281.67 569.706 1283.05 564.442 1285.82 560.112C1288.58 555.706 1292.16 552.346 1296.57 550.032C1300.97 547.717 1305.64 546.56 1310.57 546.56C1315.5 546.56 1320.16 547.717 1324.57 550.032C1328.97 552.346 1332.56 555.706 1335.32 560.112C1338.08 564.442 1339.46 569.706 1339.46 575.904C1339.46 582.101 1338.08 587.402 1335.32 591.808C1332.56 596.138 1328.97 599.461 1324.57 601.776C1320.16 604.09 1315.5 605.248 1310.57 605.248ZM1310.57 589.792C1312.73 589.792 1314.49 589.232 1315.83 588.112C1317.18 586.992 1318.15 585.386 1318.74 583.296C1319.42 581.205 1319.75 578.741 1319.75 575.904C1319.75 573.066 1319.42 570.602 1318.74 568.512C1318.15 566.421 1317.18 564.816 1315.83 563.696C1314.49 562.576 1312.73 562.016 1310.57 562.016C1308.4 562.016 1306.65 562.576 1305.3 563.696C1303.96 564.816 1302.95 566.421 1302.28 568.512C1301.68 570.602 1301.38 573.066 1301.38 575.904C1301.38 578.741 1301.68 581.205 1302.28 583.296C1302.95 585.386 1303.96 586.992 1305.3 588.112C1306.65 589.232 1308.4 589.792 1310.57 589.792ZM1355.77 603.904V547.904H1371.57L1373.02 559.776H1373.47C1376.16 555.146 1379.41 551.786 1383.21 549.696C1387.1 547.605 1391.13 546.56 1395.31 546.56C1397.92 546.56 1399.94 546.784 1401.36 547.232C1402.85 547.605 1404.38 548.128 1405.95 548.8L1402.14 564.928C1400.5 564.405 1398.97 564.032 1397.55 563.808C1396.13 563.509 1394.41 563.36 1392.4 563.36C1389.19 563.36 1386.01 564.33 1382.88 566.272C1379.74 568.138 1377.13 571.424 1375.04 576.128V603.904H1355.77ZM1435.47 605.248C1431.59 605.248 1428.31 604.464 1425.62 602.896C1422.93 601.253 1420.88 599.125 1419.46 596.512C1418.04 593.898 1417.33 591.061 1417.33 588C1417.33 581.728 1420.02 576.949 1425.39 573.664C1430.84 570.304 1439.95 568.288 1452.72 567.616C1452.5 566.272 1451.94 565.189 1451.04 564.368C1450.15 563.472 1448.91 562.837 1447.35 562.464C1445.85 562.016 1444.06 561.792 1441.97 561.792C1440.4 561.792 1438.8 561.978 1437.15 562.352C1435.51 562.65 1433.76 563.173 1431.89 563.92C1430.1 564.592 1428.08 565.45 1425.84 566.496L1419.12 553.952C1421.96 552.384 1424.83 551.04 1427.75 549.92C1430.66 548.8 1433.61 547.978 1436.59 547.456C1439.58 546.858 1442.64 546.56 1445.78 546.56C1451.08 546.56 1455.67 547.493 1459.55 549.36C1463.51 551.152 1466.57 553.989 1468.74 557.872C1470.9 561.68 1471.99 566.645 1471.99 572.768V603.904H1456.31L1454.96 598.08H1454.51C1451.75 600.096 1448.76 601.813 1445.55 603.232C1442.34 604.576 1438.98 605.248 1435.47 605.248ZM1441.75 590.464C1443.99 590.464 1446 590.053 1447.79 589.232C1449.59 588.336 1451.23 587.328 1452.72 586.208V579.04C1448.17 579.189 1444.66 579.6 1442.19 580.272C1439.73 580.944 1438.01 581.84 1437.04 582.96C1436.15 584.005 1435.7 585.162 1435.7 586.432C1435.7 587.253 1435.92 588 1436.37 588.672C1436.82 589.269 1437.49 589.717 1438.39 590.016C1439.28 590.314 1440.4 590.464 1441.75 590.464ZM1521.67 605.248C1515.55 605.248 1510.66 604.202 1507 602.112C1503.34 600.021 1500.69 597.109 1499.05 593.376C1497.4 589.568 1496.58 585.162 1496.58 580.16V562.912H1483.14V548.576L1497.48 547.904L1499.94 531.104H1515.85V547.904H1538.02V562.912H1515.85V579.824C1515.85 582.437 1516.26 584.528 1517.08 586.096C1517.9 587.589 1519.09 588.672 1520.66 589.344C1522.3 589.941 1524.32 590.24 1526.71 590.24C1528.65 590.24 1530.44 590.09 1532.09 589.792C1533.8 589.418 1535.41 588.97 1536.9 588.448L1540.26 602.336C1537.8 603.008 1535.03 603.642 1531.97 604.24C1528.91 604.912 1525.48 605.248 1521.67 605.248ZM1575.16 603.904V562.912H1553.88V547.904H1594.43V603.904H1575.16ZM1584.12 540.288C1580.54 540.288 1577.59 539.28 1575.27 537.264C1572.96 535.173 1571.8 532.448 1571.8 529.088C1571.8 525.728 1572.96 523.002 1575.27 520.912C1577.59 518.746 1580.54 517.664 1584.12 517.664C1587.71 517.664 1590.66 518.746 1592.97 520.912C1595.28 523.002 1596.44 525.728 1596.44 529.088C1596.44 532.448 1595.28 535.173 1592.97 537.264C1590.66 539.28 1587.71 540.288 1584.12 540.288ZM1635.6 603.904L1615.44 547.904H1634.7L1641.98 572.32C1642.8 575.082 1643.59 577.92 1644.33 580.832C1645.08 583.744 1645.83 586.73 1646.57 589.792H1647.02C1647.84 586.73 1648.59 583.744 1649.26 580.832C1650.01 577.92 1650.79 575.082 1651.61 572.32L1658.89 547.904H1677.26L1657.77 603.904H1635.6ZM1716.87 605.248C1710.97 605.248 1705.63 604.09 1700.85 601.776C1696.15 599.461 1692.41 596.138 1689.65 591.808C1686.89 587.402 1685.51 582.101 1685.51 575.904C1685.51 569.781 1686.89 564.554 1689.65 560.224C1692.49 555.818 1696.15 552.458 1700.63 550.144C1705.11 547.754 1709.85 546.56 1714.85 546.56C1720.75 546.56 1725.68 547.792 1729.63 550.256C1733.59 552.645 1736.54 555.893 1738.48 560C1740.5 564.106 1741.51 568.661 1741.51 573.664C1741.51 575.306 1741.39 576.912 1741.17 578.48C1741.02 579.973 1740.87 581.056 1740.72 581.728H1700.07V569.184H1727.39L1724.71 572.544C1724.71 568.81 1723.96 565.973 1722.47 564.032C1720.97 562.09 1718.66 561.12 1715.52 561.12C1713.06 561.12 1710.97 561.642 1709.25 562.688C1707.61 563.733 1706.34 565.376 1705.44 567.616C1704.55 569.781 1704.1 572.544 1704.1 575.904C1704.1 579.413 1704.66 582.25 1705.78 584.416C1706.97 586.581 1708.69 588.186 1710.93 589.232C1713.24 590.202 1716.12 590.688 1719.55 590.688C1721.79 590.688 1723.96 590.426 1726.05 589.904C1728.22 589.306 1730.53 588.448 1732.99 587.328L1739.27 598.752C1735.91 600.842 1732.21 602.448 1728.18 603.568C1724.15 604.688 1720.38 605.248 1716.87 605.248ZM1754.23 621.824L1791.19 524.384H1807.09L1770.13 621.824H1754.23ZM1824.75 601.216V583.968L1852.97 566.944V566.496L1824.75 549.472V532.224L1868.65 560.224V573.216L1824.75 601.216Z" fill="black"/>
</svg>
